<svg xmlns="http://www.w3.org/2000/svg" xmlns:xlink="http://www.w3.org/1999/xlink" viewBox="0 0 1000 1002.04"><defs><style>.cls-1,.cls-14,.cls-8,.cls-9{fill:none;}.cls-2{fill:#0093e9;}.cls-3{clip-path:url(#clip-path);}.cls-4{fill:#ffac9d;}.cls-5{fill:#e08880;}.cls-6{fill:#ec894b;}.cls-7{fill:#ffa655;}.cls-14,.cls-15,.cls-8,.cls-9{stroke:#7f5e6a;stroke-miterlimit:10;}.cls-8{stroke-width:1.83px;}.cls-10{fill:#f1534f;}.cls-11{fill:#ff6a59;}.cls-12{fill:#fff;}.cls-13{fill:#352836;}.cls-14,.cls-15{stroke-width:1.43px;}.cls-15{fill:#9cc7dc;}</style><clipPath id="clip-path"><circle class="cls-1" cx="500" cy="500" r="500"/></clipPath></defs><title>Asset 4</title><g id="Layer_2" data-name="Layer 2"><g id="Layer_1-2" data-name="Layer 1"><circle class="cls-2" cx="500" cy="500" r="500"/><g class="cls-3"><path class="cls-4" d="M615.08,679.49c-46.68-25.47-34-148.56-34-148.56l-69.92,4.5v-4.49l-7.48,2.25-7.48-2.25v4.49l-69.92-4.5S439.06,654,392.38,679.49,69.83,717.68,99.53,1002H907.92C937.63,717.68,661.77,705,615.08,679.49Z"/><path class="cls-5" d="M416.53,647.73Q500.31,635.25,584,622c-7.85-42.45-2.83-91-2.83-91l-69.92,4.5v-4.49l-7.48,2.25-7.48-2.25v4.49l-69.92-4.5S433.7,602.45,416.53,647.73Z"/><path class="cls-6" d="M629.61,677.3c-23.31-12.71-31.9-49.59-34.65-83.55C574.44,601.51,533.42,606,507.09,606c-31.62,0-71.63-6.5-94.23-17.31-2.3,35.27-10.54,75.24-35,88.58-47,25.64-313.72,38.46-283.81,324.74H907.91C937.82,715.76,676.61,702.94,629.61,677.3Z"/><path class="cls-7" d="M503.36,743.63c64.17,0,121.73-21.33,161.07-55.1-14.3-4-25.65-7.51-32.47-11.23-23.31-12.71-31.9-49.59-34.64-83.55C576.8,601.51,535.78,606,509.44,606c-31.61,0-71.62-6.5-94.23-17.31-2.29,35.27-10.53,75.24-35,88.58-7.42,4.05-20.33,7.78-36.68,12.32C382.83,722.76,439.86,743.63,503.36,743.63Z"/><polyline class="cls-8" points="205.74 968.15 251.15 925.26 294.04 968.15"/><polyline class="cls-8" points="716.54 966.45 768.3 925.26 811.18 968.15"/><polyline class="cls-8" points="631.13 966.72 680 925.26 722.89 968.15"/><polyline class="cls-8" points="548.83 968.15 594.23 925.26 637.12 968.15"/><polyline class="cls-8" points="458.71 967.25 508.47 925.26 554.89 966.99"/><polyline class="cls-8" points="377.29 968.15 422.69 925.26 465.58 968.15"/><polyline class="cls-8" points="287.9 967.25 336.92 925.26 382.74 966.45"/><polyline class="cls-9" points="205.74 925.95 251.15 883.07 294.04 925.95"/><polyline class="cls-9" points="716.54 924.25 768.3 883.07 811.18 925.95"/><polyline class="cls-9" points="631.13 924.52 680 883.07 722.89 925.95"/><polyline class="cls-9" points="548.83 925.95 594.23 883.07 637.12 925.95"/><polyline class="cls-9" points="458.71 925.06 508.47 883.07 554.89 924.79"/><polyline class="cls-9" points="377.29 925.95 422.69 883.07 465.58 925.95"/><polyline class="cls-9" points="287.9 925.06 336.92 883.07 382.74 924.25"/><path class="cls-7" d="M219.5,899.12c0-58.36-7.05-111.78-18.74-153.19C134.71,788.81,79.55,863.32,94.05,1002H211.68A654.26,654.26,0,0,0,219.5,899.12Z"/><path class="cls-7" d="M800.31,743.67c-12.08,41.71-19.4,96-19.4,155.45A653,653,0,0,0,788.74,1002H907.91C922.66,860.82,866.57,786.17,800.31,743.67Z"/><path class="cls-5" d="M367,350.75C353.27,308.07,320.7,318,317.65,319c-3.2.38-36.87,5.38-31,49.83,5.85,44.73,31.8,69,56.13,61.84C367.77,426.68,380.86,393.68,367,350.75Z"/><path class="cls-5" d="M641.69,350.75C655.44,308.07,688,318,691.06,319c3.2.38,36.87,5.38,31.05,49.83-5.85,44.73-31.8,69-56.13,61.84C640.94,426.68,627.85,393.68,641.69,350.75Z"/><path class="cls-4" d="M333.66,286.1C350.7,99,492.93,109.5,506.34,110.9,519.76,109.5,662,99,679,286.1c17.15,188.2-66.68,311.11-172.69,304.35C400.33,597.21,316.51,474.3,333.66,286.1Z"/><path class="cls-10" d="M326.83,154.7s-38.53,24.77-11,110.08l16.51,96.32,13.76,2.75S340.59,218,387.37,185,326.83,154.7,326.83,154.7Z"/><path class="cls-11" d="M621.3,168.46s-184.39,107.33-283.46,22,5.5-129.35,46.78-123.84c0,0-13.76-46.79,41.28-52.29s44,49.54,126.59,49.54,123.85,5.5,115.59,74.3c0,0,41.28-24.77,55,22S684.59,361.1,684.59,361.1l-5.5,24.77H665.33V253.77S613,270.29,621.3,168.46Z"/><path class="cls-10" d="M723.12,160.21c-13.76-46.79-55-22-55-22,4.75-39.62-7-58.22-33.47-66.9-5.52,39.65-18.27,78-41.18,111.43,17.3-8.13,27.87-14.26,27.87-14.26-8.26,101.83,44,85.31,44,85.31v132.1h13.76l5.5-24.77S736.88,207,723.12,160.21Z"/><path class="cls-5" d="M530.87,308q1.8,13.06,3.41,26.16t3.17,26.2c1,8.73,2,17.47,2.93,26.21s1.88,17.49,2.75,26.24l0,.4-.32.22-16.4,10.95c-5.5,3.61-11,7.25-16.5,10.81,5.31-3.88,10.68-7.67,16-11.5l16.13-11.35-.29.62q-1.59-13.1-3.05-26.21c-1-8.73-1.94-17.48-2.87-26.22s-1.8-17.5-2.64-26.25S531.6,316.8,530.87,308Z"/><path class="cls-12" d="M578.85,468.84c-33.86,32.91-91.21,31.09-134.66,1.75"/><path class="cls-13" d="M640.47,294.17a97.11,97.11,0,0,0-9.68-8.59,89.83,89.83,0,0,0-10.64-7.19,69.06,69.06,0,0,0-11.56-5.34,49,49,0,0,0-12.33-2.7,45,45,0,0,0-12.53.64,49.24,49.24,0,0,0-12,4.09,80.48,80.48,0,0,0-20.51,15.37,64.84,64.84,0,0,1,19.54-17.24l.71-.42.75-.36,1.5-.71a24.22,24.22,0,0,1,3.06-1.3c1-.36,2.08-.77,3.14-1.1l3.24-.83a46,46,0,0,1,13.29-.82c8.92.77,17.36,4.21,24.74,8.92a76.28,76.28,0,0,1,10.4,8A71,71,0,0,1,640.47,294.17Z"/><path class="cls-13" d="M463.3,294.17a97.11,97.11,0,0,0-9.68-8.59A88.22,88.22,0,0,0,443,278.39a68.69,68.69,0,0,0-11.56-5.34,49,49,0,0,0-12.32-2.7,45.08,45.08,0,0,0-12.54.64,49.24,49.24,0,0,0-11.95,4.09,80.48,80.48,0,0,0-20.51,15.37,64.84,64.84,0,0,1,19.54-17.24l.72-.42.74-.36,1.5-.71a24.22,24.22,0,0,1,3.06-1.3c1-.36,2.09-.77,3.15-1.1l3.23-.83a46,46,0,0,1,13.3-.82c8.91.77,17.35,4.21,24.73,8.92a75.67,75.67,0,0,1,10.4,8A70.31,70.31,0,0,1,463.3,294.17Z"/><path class="cls-14" d="M319.16,313.91,367,350.75l120.28,3.77s31-43.46,56.81,0h124l37.24-34.91"/><circle class="cls-15" cx="425.32" cy="354.52" r="61.99"/><circle class="cls-15" cx="606.1" cy="354.52" r="61.99"/><path class="cls-13" d="M457.68,362a53.24,53.24,0,0,0-3-11.89,39.3,39.3,0,0,0-5.8-10.67,29.24,29.24,0,0,0-4.18-4.36,23.48,23.48,0,0,0-5-3.3A26.77,26.77,0,0,0,428,329.08a36.85,36.85,0,0,0-6,.36,26.31,26.31,0,0,0-5.78,1.64,21.5,21.5,0,0,0-9.15,7.55,31.72,31.72,0,0,0-4.69,11.15,47.85,47.85,0,0,0-1.2,12.18,45.35,45.35,0,0,1,.62-12.3,32.15,32.15,0,0,1,4.51-11.54,21.76,21.76,0,0,1,9.48-8,28.28,28.28,0,0,1,6-1.77,37.46,37.46,0,0,1,6.25-.43,27.84,27.84,0,0,1,12.11,2.89,24.09,24.09,0,0,1,5.21,3.49,26.71,26.71,0,0,1,4.25,4.58,40,40,0,0,1,5.62,11A50.09,50.09,0,0,1,457.68,362Z"/><path class="cls-13" d="M616.89,359.4a53.24,53.24,0,0,0-3-11.89,39.21,39.21,0,0,0-5.8-10.68,29.31,29.31,0,0,0-4.19-4.36,23.54,23.54,0,0,0-5-3.3,26.83,26.83,0,0,0-11.66-2.66,36.79,36.79,0,0,0-6,.36,27.46,27.46,0,0,0-5.78,1.64,21.53,21.53,0,0,0-9.16,7.56,32,32,0,0,0-4.69,11.14,47.88,47.88,0,0,0-1.19,12.19,45,45,0,0,1,.62-12.31,32.32,32.32,0,0,1,4.5-11.54,21.79,21.79,0,0,1,9.49-8,28.11,28.11,0,0,1,6-1.77,37.4,37.4,0,0,1,6.24-.42,27.87,27.87,0,0,1,12.12,2.88,24.46,24.46,0,0,1,5.21,3.49,26,26,0,0,1,4.24,4.59,39.37,39.37,0,0,1,5.62,11A50.09,50.09,0,0,1,616.89,359.4Z"/></g></g></g></svg>